<?xml version="1.0" encoding="UTF-8"?>
<svg width="201px" height="69px" viewBox="0 0 201 69" version="1.1" xmlns="http://www.w3.org/2000/svg" xmlns:xlink="http://www.w3.org/1999/xlink">
    <!-- Generator: Sketch 47.1 (45422) - http://www.bohemiancoding.com/sketch -->
    <title>Landscape logo</title>
    <desc>Created with Sketch.</desc>
    <defs></defs>
    <g id="Page-1" stroke="none" stroke-width="1" fill="none" fill-rule="evenodd">
        <g id="Home-" transform="translate(-148.000000, -2285.000000)">
            <g id="FOOTER" transform="translate(0.000000, 2065.000000)">
                <g id="Landscape-logo" transform="translate(148.000000, 220.000000)">
                    <g id="Logo-colored">
                        <g id="WOROOD-(LOGO)">
                            <path d="M196.198964,35.2357064 C194.211298,35.2357064 192.594559,33.6056426 192.594559,31.6021957 C192.594559,29.5850468 194.211298,27.9681957 196.198964,27.9681957 C198.18566,27.9681957 199.809196,29.5850468 199.809196,31.6021957 C199.809196,33.6056426 198.18566,35.2357064 196.198964,35.2357064 M196.198964,27.1142596 C193.746182,27.1142596 191.752204,29.1314085 191.752204,31.6021957 C191.752204,34.072983 193.746182,36.0911106 196.198964,36.0911106 C198.657088,36.0911106 200.651551,34.072983 200.651551,31.6021957 C200.651551,29.1314085 198.657088,27.1142596 196.198964,27.1142596 M195.775117,31.2293021 L195.105117,31.2293021 L195.105117,30.0132383 L195.813472,30.0132383 C196.178573,30.0132383 196.398022,30.0274298 196.470363,30.0274298 C196.61553,30.0538553 196.734964,30.1199191 196.814102,30.2261106 C196.893725,30.3205574 196.934022,30.4404511 196.934022,30.6146638 C196.934022,30.7482596 196.899551,30.8666851 196.841291,30.9611319 C196.774291,31.0555787 196.694667,31.1353447 196.589798,31.1612809 C196.476675,31.2018979 196.212073,31.2293021 195.775117,31.2293021 M197.165609,32.2706638 C197.034037,32.1243447 196.874305,31.9892809 196.682044,31.870366 C197.072392,31.8018553 197.364667,31.6570043 197.56324,31.4294511 C197.763269,31.2018979 197.854544,30.9073021 197.854544,30.5476213 C197.854544,30.2667277 197.794827,30.0132383 197.663254,29.7984085 C197.537022,29.5850468 197.364667,29.4255149 197.146675,29.3442809 C196.927225,29.2645149 196.575233,29.2111745 196.105747,29.2111745 L194.198189,29.2111745 L194.198189,33.9667915 L195.105117,33.9667915 L195.105117,31.9760681 L195.291066,31.9760681 C195.502262,31.9760681 195.648885,32.0039617 195.748899,32.0298979 C195.834349,32.0705149 195.933392,32.1370681 196.013501,32.2300468 C196.105747,32.3240043 196.257711,32.5633021 196.489783,32.9244511 L197.146675,33.9667915 L198.225957,33.9667915 L197.675878,33.0316213 C197.464682,32.6577489 197.291841,32.4037702 197.165609,32.2706638" id="Fill-59" fill="#FFFFFF"></path>
                            <g id="Flower-Red" transform="translate(151.478261, 0.000000)" fill="#CE3D32">
                                <path d="M19.6521196,20.1462872 C19.6521196,20.1462872 13.5424964,17.233117 14.5173949,14.1887979 C15.2854674,11.8105 19.9443949,9.35292553 19.9443949,9.35292553 C19.9443949,9.35292553 17.1478732,16.2720106 19.6521196,20.1462872" id="Fill-33"></path>
                                <path d="M21.348579,19.9056681 C21.348579,19.9056681 19.4327674,15.2180723 21.6403688,12.5456681 C22.6264341,11.3697319 24.6548833,11.3697319 24.5160283,13.5478809 C24.1766587,19.0649447 21.348579,19.9056681 21.348579,19.9056681" id="Fill-35"></path>
                                <path d="M23.8268507,21.3209511 C24.1511696,19.7574404 27.0933435,16.2462702 26.8132058,13.1735681 C26.728242,12.1713553 29.7296478,13.8014191 30.0136696,15.3644404 C30.3059449,16.9132702 23.5603072,22.5761638 23.8268507,21.3209511" id="Fill-37"></path>
                                <path d="M28.7227058,11.9568681 C28.7227058,11.9568681 24.7464014,9.92699574 21.7323725,10.0879957 C20.3350826,10.1545489 22.3679014,6.76180426 23.6006043,6.82884681 C24.8061188,6.9081234 28.7227058,9.92699574 28.7227058,11.9568681" id="Fill-39"></path>
                                <path d="M34.7109036,34.8777872 C36.713621,33.155234 37.1301862,19.4115106 33.7573674,15.5778511 C31.8231065,13.3879574 30.4719399,21.2798936 27.2724471,25.915617 C24.0700413,30.5645532 17.3263457,35.2775957 17.3263457,35.2775957 C17.3263457,35.2775957 32.7246935,36.5871277 34.7109036,34.8777872" id="Fill-13"></path>
                                <path d="M14.0465014,34.6369234 C14.0465014,34.6369234 9.03024058,31.5382851 6.34732754,29.0141574 C3.67121159,26.4900298 0.557168116,20.6264979 0.557168116,20.6264979 C0.557168116,20.6264979 -0.132252174,31.0440298 2.03505217,33.088583 C4.19458841,35.1184553 14.0465014,34.6369234 14.0465014,34.6369234" id="Fill-17"></path>
                                <path d="M0.729668841,5.98753617 C0.729668841,5.98753617 4.61858188,11.2770468 8.5997413,15.0162596 C12.5755601,18.7574298 22.348821,24.3674723 22.348821,25.5155149 C22.348821,26.649366 17.3267341,32.1943234 15.4245167,31.6981106 C13.5295819,31.2180468 11.1510819,29.5346426 7.82487174,26.489834 C1.67689348,20.8670681 -1.43083841,3.46340851 0.729668841,5.98753617" id="Fill-21"></path>
                                <path d="M23.0379014,0.110889362 C23.0379014,0.110889362 14.133213,9.15282553 13.0136333,11.6769532 C11.886771,14.2010809 12.0445609,14.2010809 8.85963333,11.023166 C5.65771304,7.85797447 -0.735446377,0.859123404 1.8561913,0.364868085 C4.44637246,-0.129876596 23.0379014,0.110889362 23.0379014,0.110889362" id="Fill-25"></path>
                                <path d="M23.7334391,4.1837 C23.7334391,4.1837 30.4717942,-1.82615106 34.3611928,1.83329574 C38.2564174,5.49323191 35.9182145,13.3881043 35.9182145,13.3881043 C35.9182145,13.3881043 26.4891783,4.99995532 23.7334391,4.1837" id="Fill-29"></path>
                            </g>
                            <g id="Made-with-love" transform="translate(99.043478, 60.680851)" fill="#FFFFFF">
                                <path d="M8.66611014,6.8023234 C8.70543623,7.16151489 8.77437826,7.7198766 9.20065362,7.85934468 C9.48953043,7.95085532 9.74587826,7.95085532 9.84589275,7.95085532 C9.89444348,7.95085532 9.92551594,7.96064255 9.92551594,7.99930213 C9.92551594,8.05949362 9.83472609,8.0903234 9.71723333,8.0903234 C9.49924058,8.0903234 8.42918261,8.05949362 8.06116812,8.03013191 C7.83395072,8.01104681 7.78345797,7.97972766 7.78345797,7.9293234 C7.78345797,7.89066383 7.80482029,7.87108936 7.85337101,7.85934468 C7.90337826,7.85004681 7.9126029,7.68072766 7.89366812,7.50015319 L7.4169,2.34717447 L7.38825507,2.34717447 L4.95974783,7.54077021 C4.75146522,7.97972766 4.72233478,8.06928085 4.63348696,8.06928085 C4.56454493,8.06928085 4.51405217,7.96994043 4.32567536,7.61025957 C4.06884203,7.12089787 3.21677681,5.39345106 3.16676957,5.29264255 C3.07792174,5.11402553 1.96805217,2.71664255 1.85832754,2.44651489 L1.81948696,2.44651489 L1.42234203,7.08028085 C1.41263188,7.24128085 1.41263188,7.42038723 1.41263188,7.59117447 C1.41263188,7.74042979 1.52235652,7.87108936 1.67092174,7.90045106 C1.83890725,7.94057872 1.98698696,7.95085532 2.04718986,7.95085532 C2.08748696,7.95085532 2.12584203,7.96994043 2.12584203,7.99930213 C2.12584203,8.06928085 2.06612464,8.0903234 1.94863188,8.0903234 C1.58061739,8.0903234 1.10627681,8.05949362 1.02568261,8.05949362 C0.936834783,8.05949362 0.461037681,8.0903234 0.194494203,8.0903234 C0.0944797101,8.0903234 0.0250521739,8.06928085 0.0250521739,7.99930213 C0.0250521739,7.96994043 0.0750594203,7.95085532 0.125066667,7.95085532 C0.204204348,7.95085532 0.273146377,7.95085532 0.422197101,7.91953617 C0.749428986,7.85934468 0.77855942,7.47079149 0.818856522,7.09153617 L1.53206667,0.579110638 C1.54177681,0.468514894 1.58061739,0.39853617 1.64033478,0.39853617 C1.70005217,0.39853617 1.74034928,0.439642553 1.7889,0.548280851 L4.82089275,6.83168511 L7.73490725,0.55953617 C7.77423333,0.468514894 7.81453043,0.39853617 7.88347246,0.39853617 C7.9529,0.39853617 7.98251594,0.479770213 8.00145072,0.66866383 L8.66611014,6.8023234 Z" id="Fill-61"></path>
                                <path d="M13.9934355,5.37245745 C14.0317906,5.37245745 14.0317906,5.35288298 14.0225659,5.31373404 L13.1603051,2.98632979 C13.1107833,2.85615957 13.0602906,2.85615957 13.0122254,2.98632979 L12.1990007,5.31373404 C12.1892906,5.35288298 12.1990007,5.37245745 12.2291022,5.37245745 L13.9934355,5.37245745 Z M13.0219355,1.83828723 C13.1297181,1.55837234 13.1705007,1.50796809 13.2297326,1.50796809 C13.3185804,1.50796809 13.3491674,1.62835106 13.4380152,1.81724468 C13.5962906,2.17643617 14.9940659,5.68320213 15.5276384,6.97169149 C15.8456457,7.73118085 16.0830587,7.83981915 16.271921,7.9005 C16.4010659,7.94062766 16.5302109,7.95090426 16.6190587,7.95090426 C16.6685804,7.95090426 16.7273268,7.96998936 16.7273268,8.02039362 C16.7273268,8.06932979 16.6282833,8.09037234 16.5302109,8.09037234 C16.4010659,8.09037234 15.7567978,8.09037234 15.1518558,8.06932979 C14.9843558,8.05954255 14.8450152,8.05954255 14.8450152,8.01109574 C14.8450152,7.96998936 14.864921,7.96998936 14.9047326,7.95090426 C14.9537688,7.92937234 15.0435877,7.85939362 14.9843558,7.71943617 L14.2012326,5.77275532 C14.1803558,5.73164894 14.1711312,5.72235106 14.1206384,5.72235106 L12.1106384,5.72235106 C12.0693703,5.72235106 12.0407254,5.74339362 12.0213051,5.79184043 L11.5260877,7.15030851 C11.4464645,7.36024468 11.3969428,7.56969149 11.3969428,7.71943617 C11.3969428,7.89071277 11.5450225,7.95090426 11.6935877,7.95090426 L11.7727254,7.95090426 C11.8421529,7.95090426 11.8615732,7.9797766 11.8615732,8.02039362 C11.8615732,8.06932979 11.8130225,8.09037234 11.7338848,8.09037234 C11.5260877,8.09037234 11.0498051,8.05954255 10.9497906,8.05954255 C10.8614283,8.05954255 10.4254428,8.09037234 10.0685949,8.09037234 C9.95887029,8.09037234 9.90109493,8.06932979 9.90109493,8.02039362 C9.90109493,7.9797766 9.93945,7.95090426 9.9797471,7.95090426 C10.0394645,7.95090426 10.1676384,7.94062766 10.2365804,7.92937234 C10.6332399,7.88043617 10.8012254,7.57996809 10.9706674,7.15030851 L13.0219355,1.83828723 Z" id="Fill-63"></path>
                                <path d="M18.6730457,5.0439 C18.6730457,5.94187872 18.6730457,6.73219787 18.6827558,6.89172979 C18.694408,7.10166596 18.7133428,7.41045319 18.7827703,7.50000638 C18.8910384,7.66100638 19.1993355,7.8396234 20.2286109,7.8396234 C21.0321254,7.8396234 21.7453355,7.56998511 22.2696833,7.07034681 C22.7270312,6.6411766 22.9542486,5.83324043 22.9542486,5.05368723 C22.9542486,3.97513404 22.4876761,3.2856234 22.1313138,2.92643191 C21.3098355,2.0871766 20.3480457,1.97804894 19.3071181,1.97804894 C19.1391326,1.97804894 18.861908,2.00692128 18.7827703,2.03677234 C18.7036326,2.06711277 18.6730457,2.10675106 18.6730457,2.20755957 L18.6730457,5.0439 Z M17.8806978,4.12487872 C17.8806978,2.80555957 17.8806978,2.56675106 17.8612775,2.2966234 C17.8399152,2.00692128 17.7923355,1.86745319 17.5049152,1.82634681 C17.4350022,1.81704894 17.287408,1.8072617 17.2063283,1.8072617 C17.1767123,1.8072617 17.1369007,1.76811277 17.1369007,1.73728298 C17.1369007,1.68834681 17.1767123,1.66730426 17.2752703,1.66730426 C17.6724152,1.66730426 18.2375457,1.68834681 18.2875529,1.68834681 C18.3856254,1.68834681 18.9410457,1.66730426 19.4556833,1.66730426 C20.3286254,1.66730426 21.9230312,1.5875383 22.9542486,2.63672979 C23.3897486,3.07568723 23.8058283,3.7852617 23.8058283,4.79383617 C23.8058283,5.86211277 23.3513935,6.68179362 22.8654007,7.18143191 C22.4876761,7.56998511 21.7050384,8.16064468 20.2193862,8.16064468 C19.8426326,8.16064468 19.3770312,8.12981489 19.0002775,8.10975106 C18.6244949,8.08087872 18.325908,8.05983617 18.2875529,8.05983617 C18.2681326,8.05983617 18.1079152,8.0696234 17.9307051,8.0696234 C17.7520384,8.08087872 17.5432703,8.09066596 17.4044152,8.09066596 C17.3160529,8.09066596 17.2660457,8.0696234 17.2660457,8.02068723 C17.2660457,7.98985745 17.287408,7.95070851 17.3349877,7.95070851 C17.4146109,7.95070851 17.52385,7.9291766 17.6029877,7.91009149 C17.7709732,7.87094255 17.7923355,7.70994255 17.8306906,7.46085745 C17.8806978,7.11145319 17.8806978,6.44102766 17.8806978,5.62281489 L17.8806978,4.12487872 Z" id="Fill-65"></path>
                                <path d="M25.8122355,4.12492766 C25.8122355,2.80560851 25.8122355,2.5668 25.7923297,2.29667234 C25.7719384,2.00697021 25.7233877,1.86750213 25.4364529,1.82639574 C25.3665399,1.81709787 25.2184601,1.80731064 25.1373804,1.80731064 C25.10825,1.80731064 25.0679529,1.7681617 25.0679529,1.73733191 C25.0679529,1.68839574 25.10825,1.66735319 25.2072935,1.66735319 C25.6039529,1.66735319 26.1685978,1.68839574 26.2186051,1.68839574 C26.278808,1.68839574 28.1018877,1.69867234 28.2990036,1.68839574 C28.4684457,1.67714043 28.6262355,1.64777872 28.695663,1.63799149 C28.7359601,1.62820426 28.7748007,1.59737447 28.8155833,1.59737447 C28.8442283,1.59737447 28.8534529,1.63799149 28.8534529,1.67714043 C28.8534529,1.73733191 28.8053877,1.83814043 28.7845109,2.07694894 C28.7748007,2.15720426 28.7558659,2.53548085 28.7359601,2.63628936 C28.7247935,2.67592766 28.695663,2.72633191 28.6553659,2.72633191 C28.6068152,2.72633191 28.5859384,2.68718298 28.5859384,2.61720426 C28.5859384,2.55701277 28.5762283,2.41705532 28.5378732,2.31624681 C28.4781558,2.17677872 28.3888225,2.11756596 27.9130254,2.05786383 C27.7644601,2.03682128 26.7531486,2.02654468 26.6545906,2.02654468 C26.6142935,2.02654468 26.6040978,2.05786383 26.6040978,2.11756596 L26.6040978,4.42441702 C26.6040978,4.48460851 26.6040978,4.51348085 26.6545906,4.51348085 C26.7638297,4.51348085 27.9130254,4.51348085 28.1115978,4.49390638 C28.3198804,4.47482128 28.4470833,4.46503404 28.5378732,4.37401277 C28.5975906,4.31528936 28.6359457,4.26488511 28.6665326,4.26488511 C28.695663,4.26488511 28.7150833,4.28445957 28.7150833,4.33486383 C28.7150833,4.3838 28.6665326,4.52375745 28.6456558,4.80318298 C28.6262355,4.97397021 28.6068152,5.29254468 28.6068152,5.35273617 C28.6068152,5.42320426 28.5859384,5.51226809 28.528163,5.51226809 C28.4873804,5.51226809 28.4684457,5.48290638 28.4684457,5.43250213 C28.4684457,5.35273617 28.4684457,5.26367234 28.4281486,5.1530766 C28.3985326,5.0341617 28.3198804,4.93335319 27.9819674,4.89469362 C27.7440688,4.86337447 26.8128659,4.85358723 26.6638152,4.85358723 C26.6142935,4.85358723 26.6040978,4.88441702 26.6040978,4.91377872 L26.6040978,5.62286383 C26.6040978,5.91256596 26.5948732,6.9010766 26.6040978,7.07039574 C26.6254601,7.64001277 26.78325,7.75060851 27.6450254,7.75060851 C27.8732138,7.75060851 28.2892935,7.75060851 28.5169964,7.66105532 C28.7461558,7.56024681 28.8641341,7.41050213 28.9131703,7.07039574 C28.9330761,6.97154468 28.9539529,6.94022553 29.0025036,6.94022553 C29.0520254,6.94022553 29.062221,7.01069362 29.062221,7.07039574 C29.062221,7.1310766 28.9927935,7.70999149 28.9427862,7.89056596 C28.8850109,8.1098 28.7937355,8.1098 28.45825,8.1098 C27.8037862,8.1098 27.2983732,8.09071489 26.9420109,8.0804383 C26.5754529,8.05988511 26.3482355,8.05988511 26.2186051,8.05988511 C26.1991848,8.05988511 26.0302283,8.05988511 25.8413659,8.06967234 C25.6728949,8.0804383 25.474808,8.09071489 25.3364384,8.09071489 C25.2475906,8.09071489 25.1970978,8.06967234 25.1970978,8.02024681 C25.1970978,7.98941702 25.2184601,7.95075745 25.2665254,7.95075745 C25.345663,7.95075745 25.4553877,7.9194383 25.5345254,7.91014043 C25.7020254,7.88028936 25.7233877,7.70999149 25.7617428,7.46090638 C25.8122355,7.11150213 25.8122355,6.4410766 25.8122355,5.62286383 L25.8122355,4.12492766 Z" id="Fill-67"></path>
                                <path d="M39.9173377,6.83148936 L39.9581203,6.83148936 C40.176113,6.13219149 40.9587507,3.67608511 41.2660768,2.5862766 C41.3554101,2.26770213 41.3651203,2.16689362 41.3651203,2.05776596 C41.3651203,1.90802128 41.2956928,1.80721277 40.8985478,1.80721277 C40.8504826,1.80721277 40.8194101,1.7582766 40.8194101,1.72744681 C40.8194101,1.68829787 40.8597072,1.66725532 40.9679754,1.66725532 C41.4151275,1.66725532 41.7816855,1.68829787 41.8603377,1.68829787 C41.9200551,1.68829787 42.2958377,1.66725532 42.5638377,1.66725532 C42.6434609,1.66725532 42.6832725,1.68829787 42.6832725,1.71765957 C42.6832725,1.7582766 42.6619101,1.80721277 42.6041348,1.80721277 C42.5735478,1.80721277 42.4060478,1.817 42.3060333,1.84782979 C42.0492,1.93738298 41.9103449,2.27748936 41.7413884,2.74580851 C41.3554101,3.82582979 40.4941203,6.52270213 40.1469826,7.47108511 C39.9173377,8.09991489 39.8692725,8.19925532 39.769258,8.19925532 C39.6804101,8.19925532 39.6012725,8.09061702 39.4818377,7.76029787 L37.7781928,3.11674468 C37.4805768,3.85519149 36.3017652,6.96165957 35.984729,7.75051064 C35.8361638,8.10970213 35.7769319,8.19925532 35.6769174,8.19925532 C35.5880696,8.19925532 35.5181565,8.10970213 35.3394899,7.53078723 L33.7950913,2.49721277 C33.6562362,2.04797872 33.5659319,1.93738298 33.3387145,1.85761702 C33.2187942,1.817 33.001287,1.80721277 32.9415696,1.80721277 C32.902729,1.80721277 32.8619464,1.77785106 32.8619464,1.72744681 C32.8619464,1.68829787 32.9216638,1.66725532 33.001287,1.66725532 C33.4576638,1.66725532 33.9436565,1.68829787 34.0325043,1.68829787 C34.1111565,1.68829787 34.5083014,1.66725532 34.944287,1.66725532 C35.0637217,1.66725532 35.1020768,1.68829787 35.1020768,1.72744681 C35.1020768,1.77785106 35.0520696,1.80721277 35.013229,1.80721277 C34.944287,1.80721277 34.8059174,1.80721277 34.7059029,1.85761702 C34.6471565,1.87719149 34.5874391,1.92759574 34.5874391,2.0367234 C34.5874391,2.14731915 34.6568667,2.44631915 34.7549391,2.82704255 C34.8937942,3.36534043 35.7861565,6.48208511 35.8949101,6.83148936 L35.915787,6.83148936 L37.7388667,2.08712766 C37.8665551,1.74702128 37.9262725,1.69857447 37.9762797,1.69857447 C38.0359971,1.69857447 38.1054246,1.80721277 38.2136928,2.09642553 L39.9173377,6.83148936 Z" id="Fill-69"></path>
                                <path d="M44.887621,5.62291277 C44.887621,6.44112553 44.887621,7.11155106 44.9264616,7.46095532 C44.9575341,7.71004043 44.986179,7.87104043 45.2444688,7.91018936 C45.3736138,7.92927447 45.5605341,7.95080638 45.6401572,7.95080638 C45.689679,7.95080638 45.7090993,7.98946596 45.7090993,8.02029574 C45.7090993,8.05944468 45.6697732,8.09027447 45.5707297,8.09027447 C45.0861935,8.09027447 44.5215486,8.05944468 44.4807659,8.05944468 C44.4312442,8.05944468 43.8869906,8.09027447 43.6194761,8.09027447 C43.5306283,8.09027447 43.480621,8.06972128 43.480621,8.02029574 C43.480621,7.98946596 43.5000413,7.95080638 43.5500486,7.95080638 C43.6287007,7.95080638 43.7374543,7.92927447 43.8180486,7.91018936 C43.9860341,7.87104043 44.014679,7.71004043 44.0452659,7.46095532 C44.084592,7.11155106 44.0952732,6.44112553 44.0952732,5.62291277 L44.0952732,4.1249766 C44.0952732,2.80565745 44.0952732,2.56684894 44.0748819,2.29672128 C44.0549761,2.00701915 43.9860341,1.8773383 43.7971717,1.83818936 C43.6981283,1.81714681 43.5884036,1.80735957 43.5306283,1.80735957 C43.4903312,1.80735957 43.4612007,1.76821064 43.4612007,1.73738085 C43.4612007,1.68844468 43.5000413,1.66740213 43.6000558,1.66740213 C43.8869906,1.66740213 44.4312442,1.68844468 44.4807659,1.68844468 C44.5215486,1.68844468 45.0861935,1.66740213 45.352737,1.66740213 C45.4522659,1.66740213 45.4911065,1.68844468 45.4911065,1.73738085 C45.4911065,1.76821064 45.4522659,1.80735957 45.4221645,1.80735957 C45.3639036,1.80735957 45.3041862,1.80735957 45.2041717,1.82644468 C44.9667587,1.8773383 44.9167514,1.99772128 44.8978167,2.29672128 C44.887621,2.56684894 44.887621,2.80565745 44.887621,4.1249766 L44.887621,5.62291277 Z" id="Fill-71"></path>
                                <path d="M49.8545543,5.62291277 C49.8545543,6.44112553 49.8545543,7.11155106 49.8933949,7.46095532 C49.9244674,7.71004043 49.963308,7.87104043 50.230337,7.91018936 C50.3502572,7.92927447 50.5468877,7.95080638 50.6279674,7.95080638 C50.6857428,7.95080638 50.6949674,7.98946596 50.6949674,8.02029574 C50.6949674,8.05944468 50.6566123,8.09027447 50.5580543,8.09027447 C50.0822572,8.09027447 49.5273225,8.05944468 49.4773152,8.05944468 C49.4389601,8.05944468 48.8330471,8.09027447 48.5747572,8.09027447 C48.4766848,8.09027447 48.4363877,8.06972128 48.4363877,8.02029574 C48.4363877,7.98946596 48.4572645,7.96059362 48.5058152,7.96059362 C48.5864094,7.96059362 48.6849674,7.94052979 48.7636196,7.91948723 C48.9432572,7.8803383 48.991808,7.71004043 49.0219094,7.46095532 C49.06075,7.11155106 49.06075,6.44112553 49.06075,5.62291277 L49.06075,2.05791277 L47.8023152,2.07699787 C47.2580616,2.08678511 47.0502645,2.1469766 46.9211196,2.34712553 C46.8225616,2.49687021 46.8113949,2.5570617 46.7822645,2.61725319 C46.7628442,2.68674255 46.7317717,2.69701915 46.6934167,2.69701915 C46.6720543,2.69701915 46.6336993,2.6759766 46.6336993,2.62704043 C46.6336993,2.53552979 46.8113949,1.77799787 46.8225616,1.70801915 C46.8424674,1.65761489 46.8808225,1.54848723 46.9114094,1.54848723 C46.9716123,1.54848723 47.0599746,1.61846596 47.2964167,1.64782766 C47.5454819,1.67718936 47.8829094,1.68844468 47.9814674,1.68844468 L51.2712645,1.68844468 C51.5591703,1.68844468 51.7572572,1.66740213 51.8961123,1.64782766 C52.0238007,1.62825319 52.1024529,1.60721064 52.14275,1.60721064 C52.1830471,1.60721064 52.1830471,1.65761489 52.1830471,1.70801915 C52.1830471,1.96640213 52.1524601,2.57663617 52.1524601,2.6759766 C52.1524601,2.74595532 52.1136196,2.78657234 52.0733225,2.78657234 C52.0330254,2.78657234 52.0136051,2.75721064 52.0043804,2.6363383 L51.9946703,2.54727447 C51.9640833,2.28693404 51.777163,2.09657234 50.9440326,2.07699787 L49.8545543,2.05791277 L49.8545543,5.62291277 Z" id="Fill-73"></path>
                                <path d="M59.3205377,5.62291277 C59.3205377,6.44112553 59.3307333,7.11155106 59.3710304,7.46095532 C59.3996754,7.71004043 59.4190957,7.87104043 59.6870957,7.91018936 C59.8065304,7.92927447 60.0046174,7.95080638 60.0740449,7.95080638 C60.1337623,7.95080638 60.1536681,7.98946596 60.1536681,8.02029574 C60.1536681,8.05944468 60.1036609,8.09027447 60.0046174,8.09027447 C59.5288203,8.09027447 58.9734,8.05944468 58.9238783,8.05944468 C58.8850377,8.05944468 58.3199072,8.09027447 58.0621029,8.09027447 C57.9635449,8.09027447 57.9232478,8.06972128 57.9232478,8.02029574 C57.9232478,7.98946596 57.9441246,7.95080638 57.9926754,7.95080638 C58.0722986,7.95080638 58.172313,7.92927447 58.2509652,7.91018936 C58.4281754,7.87104043 58.4592478,7.70025319 58.4883783,7.45116809 C58.5281899,7.10127447 58.5281899,6.46216809 58.5281899,5.6429766 L58.5281899,4.79393404 C58.5281899,4.75478511 58.5087696,4.74499787 58.4781826,4.74499787 L54.8407623,4.74499787 C54.8121174,4.74499787 54.7926971,4.75478511 54.7926971,4.79393404 L54.7926971,5.6429766 C54.7926971,6.46216809 54.7926971,7.11155106 54.8315377,7.46095532 C54.8621246,7.71004043 54.8912551,7.87104043 55.1495449,7.91018936 C55.2786899,7.92927447 55.4656101,7.95080638 55.5452333,7.95080638 C55.5947551,7.95080638 55.6141754,7.98946596 55.6141754,8.02029574 C55.6141754,8.05944468 55.5748493,8.09027447 55.4748348,8.09027447 C54.9912696,8.09027447 54.4358493,8.05944468 54.3955522,8.05944468 C54.3455449,8.05944468 53.7920667,8.09027447 53.5245522,8.09027447 C53.4357043,8.09027447 53.3852116,8.06972128 53.3852116,8.02029574 C53.3852116,7.98946596 53.4046319,7.95080638 53.4551246,7.95080638 C53.5337768,7.95080638 53.6425304,7.92927447 53.7231246,7.91018936 C53.8906246,7.87104043 53.9095594,7.71004043 53.9498565,7.46095532 C54.0003493,7.11155106 54.0003493,6.44112553 54.0003493,5.62291277 L54.0003493,4.1249766 C54.0003493,2.80565745 54.0003493,2.56684894 53.978987,2.29672128 C53.9600522,2.00701915 53.9095594,1.86755106 53.6231101,1.82644468 C53.5536826,1.81714681 53.4046319,1.80735957 53.3254942,1.80735957 C53.2968493,1.80735957 53.2565522,1.76821064 53.2565522,1.73738085 C53.2565522,1.68844468 53.2968493,1.66740213 53.3954072,1.66740213 C53.7920667,1.66740213 54.3455449,1.68844468 54.3955522,1.68844468 C54.4358493,1.68844468 54.9912696,1.66740213 55.2573275,1.66740213 C55.357342,1.66740213 55.3961826,1.68844468 55.3961826,1.73738085 C55.3961826,1.76821064 55.357342,1.80735957 55.3267551,1.80735957 C55.2689797,1.80735957 55.2092623,1.80735957 55.1092478,1.82644468 C54.8718348,1.8773383 54.821342,1.99772128 54.8024072,2.29672128 C54.7926971,2.56684894 54.7926971,2.82718936 54.7926971,4.14455106 L54.7926971,4.32512553 C54.7926971,4.3740617 54.8121174,4.3740617 54.8407623,4.3740617 L58.4781826,4.3740617 C58.5087696,4.3740617 58.5281899,4.3740617 58.5281899,4.32512553 L58.5281899,4.14455106 C58.5281899,2.82718936 58.5189652,2.56684894 58.5087696,2.29672128 C58.4883783,2.00701915 58.4490522,1.86755106 58.1621174,1.82644468 C58.0926899,1.81714681 57.9441246,1.80735957 57.8635304,1.80735957 C57.8246899,1.80735957 57.7941029,1.76821064 57.7941029,1.73738085 C57.7941029,1.68844468 57.8344,1.66740213 57.932958,1.66740213 C58.3199072,1.66740213 58.8850377,1.68844468 58.9238783,1.68844468 C58.9734,1.68844468 59.5288203,1.66740213 59.7871101,1.66740213 C59.8856681,1.66740213 59.9356754,1.68844468 59.9356754,1.73738085 C59.9356754,1.76821064 59.8953783,1.80735957 59.8565377,1.80735957 C59.7968203,1.80735957 59.746813,1.80735957 59.6380594,1.82644468 C59.4093855,1.8773383 59.3613203,1.99772128 59.339958,2.29672128 C59.3205377,2.56684894 59.3205377,2.80565745 59.3205377,4.1249766 L59.3205377,5.62291277 Z" id="Fill-75"></path>
                                <path d="M66.6794681,5.21312128 C66.6794681,6.68169574 66.7197652,7.32129149 66.8969754,7.49990851 C67.0552507,7.66090851 67.3135406,7.7313766 68.0864681,7.7313766 C68.612758,7.7313766 69.0487435,7.71963191 69.2851855,7.42992979 C69.4143304,7.27088723 69.5133739,7.02180213 69.5429899,6.83144043 C69.553671,6.75216383 69.5730913,6.70175957 69.6323232,6.70175957 C69.6828159,6.70175957 69.6920406,6.7423766 69.6920406,6.85101489 C69.6920406,6.96161064 69.6230986,7.5601 69.5429899,7.84980213 C69.4740478,8.08078085 69.4429754,8.11992979 68.919113,8.11992979 C68.2063884,8.11992979 67.6893232,8.09986596 67.2751855,8.09056809 C66.8581348,8.06952553 66.5503232,8.0597383 66.2633884,8.0597383 C66.2240623,8.0597383 66.0551058,8.06952553 65.8565333,8.06952553 C65.6594174,8.08078085 65.4414246,8.09056809 65.2918884,8.09056809 C65.1836203,8.09056809 65.1331275,8.06952553 65.1331275,8.01080213 C65.1331275,7.97997234 65.1525478,7.95061064 65.2127507,7.95061064 C65.3030551,7.95061064 65.4205478,7.92956809 65.5098812,7.90999362 C65.7079681,7.87084468 65.7579754,7.64965319 65.7982725,7.36044043 C65.8463377,6.94056809 65.8463377,6.15171702 65.8463377,5.19354681 L65.8463377,3.43527021 C65.8463377,1.87714255 65.8463377,1.59771702 65.8274029,1.27865319 C65.8079826,0.93903617 65.7288449,0.779014894 65.4011275,0.709525532 C65.3219899,0.687993617 65.1525478,0.678206383 65.0637,0.678206383 C65.0253449,0.678206383 64.9850478,0.659121277 64.9850478,0.618014894 C64.9850478,0.559780851 65.0345696,0.538248936 65.1433232,0.538248936 C65.5899899,0.538248936 66.2128957,0.569568085 66.2633884,0.569568085 C66.3129101,0.569568085 67.0353449,0.538248936 67.3329609,0.538248936 C67.4422,0.538248936 67.4926928,0.559780851 67.4926928,0.618014894 C67.4926928,0.659121277 67.4523957,0.678206383 67.411613,0.678206383 C67.3441275,0.678206383 67.205758,0.687993617 67.0863232,0.709525532 C66.7989029,0.75797234 66.7197652,0.929248936 66.6988884,1.27865319 C66.6794681,1.59771702 66.6794681,1.87714255 66.6794681,3.43527021 L66.6794681,5.21312128 Z" id="Fill-77"></path>
                                <path d="M73.895708,7.84985106 C74.6778601,7.84985106 76.2552732,7.42997872 76.2552732,4.9743617 C76.2552732,2.93617021 75.0254833,1.86740426 73.6485848,1.86740426 C72.1915775,1.86740426 71.1409399,2.78642553 71.1409399,4.63425532 C71.1409399,6.61176596 72.321208,7.84985106 73.895708,7.84985106 M73.6990775,1.54882979 C75.6595558,1.54882979 77.145208,2.75706383 77.145208,4.73310638 C77.145208,6.63134043 75.7493746,8.19925532 73.6485848,8.19925532 C71.2603746,8.19925532 70.2388674,6.39204255 70.2388674,4.8632766 C70.2388674,3.49551064 71.2899906,1.54882979 73.6990775,1.54882979" id="Fill-79"></path>
                                <path d="M81.0654848,6.9810383 C81.5704123,5.84229362 82.7103833,2.9457617 82.8987601,2.33748511 C82.9371152,2.20731489 82.9774123,2.08693191 82.9774123,2.01695319 C82.9774123,1.94697447 82.9468254,1.86769787 82.8579775,1.83833617 C82.7599051,1.80701702 82.6598906,1.80701702 82.5613326,1.80701702 C82.5113254,1.80701702 82.4632601,1.77814468 82.4632601,1.73752766 C82.4632601,1.68859149 82.521521,1.66754894 82.6598906,1.66754894 C83.0065428,1.66754894 83.4036877,1.68859149 83.5114703,1.68859149 C83.5624486,1.68859149 83.9377457,1.66754894 84.1960355,1.66754894 C84.2848833,1.66754894 84.3348906,1.68859149 84.3348906,1.72774043 C84.3348906,1.76835745 84.3062457,1.80701702 84.2363326,1.80701702 C84.1771007,1.80701702 83.9780428,1.80701702 83.8202529,1.90782553 C83.7008181,1.98759149 83.5624486,2.10650638 83.3347457,2.68688936 C83.2347312,2.92618723 82.8084558,3.94454894 82.3632457,4.98395319 C81.8287022,6.22154894 81.4412674,7.14057021 81.2431804,7.55995319 C81.0057674,8.06937872 80.9552746,8.19954894 80.8673978,8.19954894 C80.7673833,8.19954894 80.708637,8.09042128 80.5391949,7.68082553 L78.40005,2.47744255 C78.2014775,1.99737872 78.0820428,1.90782553 77.7946225,1.83833617 C77.6562529,1.80701702 77.5072022,1.80701702 77.4571949,1.80701702 C77.4091297,1.80701702 77.3897094,1.75857021 77.3897094,1.72774043 C77.3897094,1.67733617 77.4780717,1.66754894 77.6164413,1.66754894 C78.033492,1.66754894 78.5287094,1.68859149 78.6369775,1.68859149 C78.7258254,1.68859149 79.1127746,1.66754894 79.4502022,1.66754894 C79.607992,1.66754894 79.6876152,1.68859149 79.6876152,1.72774043 C79.6876152,1.76835745 79.6584848,1.80701702 79.5987674,1.80701702 C79.4982674,1.80701702 79.3594123,1.81729362 79.2807601,1.84763404 C79.1923978,1.88678298 79.1826877,1.93718723 79.1826877,1.99737872 C79.1826877,2.10650638 79.2924123,2.36635745 79.4191297,2.70695319 L81.0654848,6.9810383 Z" id="Fill-81"></path>
                                <path d="M85.6275536,4.12492766 C85.6275536,2.80560851 85.6275536,2.5668 85.6081333,2.29667234 C85.5872565,2.00697021 85.5382203,1.86750213 85.251771,1.82639574 C85.1823435,1.81709787 85.0332928,1.80731064 84.9531841,1.80731064 C84.9240536,1.80731064 84.883271,1.7681617 84.883271,1.73733191 C84.883271,1.68839574 84.9240536,1.66735319 85.0226116,1.66735319 C85.4187855,1.66735319 85.9844014,1.68839574 86.0344087,1.68839574 C86.0941261,1.68839574 87.9172058,1.69867234 88.1143217,1.68839574 C88.2837638,1.67714043 88.4415536,1.64777872 88.5109812,1.63799149 C88.5517638,1.62820426 88.5906043,1.59737447 88.6309014,1.59737447 C88.6595464,1.59737447 88.669742,1.63799149 88.669742,1.67714043 C88.669742,1.73733191 88.6211913,1.83814043 88.599829,2.07694894 C88.5906043,2.15720426 88.5711841,2.53548085 88.5517638,2.63628936 C88.5405971,2.67592766 88.5109812,2.72633191 88.4706841,2.72633191 C88.4226188,2.72633191 88.4012565,2.68718298 88.4012565,2.61720426 C88.4012565,2.55701277 88.3920319,2.41705532 88.3527058,2.31624681 C88.2929884,2.17677872 88.2051116,2.11756596 87.7283435,2.05786383 C87.5802638,2.03682128 86.5684667,2.02654468 86.4694232,2.02654468 C86.4296116,2.02654468 86.420387,2.05786383 86.420387,2.11756596 L86.420387,4.42441702 C86.420387,4.48460851 86.420387,4.51348085 86.4694232,4.51348085 C86.5791478,4.51348085 87.7283435,4.51348085 87.9269159,4.49390638 C88.1351986,4.47482128 88.262887,4.46503404 88.3527058,4.37401277 C88.4124232,4.31528936 88.4517493,4.26488511 88.4818507,4.26488511 C88.5109812,4.26488511 88.5304014,4.28445957 88.5304014,4.33486383 C88.5304014,4.3838 88.4818507,4.52375745 88.4614594,4.80318298 C88.4415536,4.97397021 88.4226188,5.29254468 88.4226188,5.35273617 C88.4226188,5.42320426 88.4012565,5.51226809 88.3434812,5.51226809 C88.3031841,5.51226809 88.2837638,5.48290638 88.2837638,5.43250213 C88.2837638,5.35273617 88.2837638,5.26367234 88.2434667,5.1530766 C88.2143362,5.0341617 88.1351986,4.93335319 87.7982565,4.89469362 C87.559387,4.86337447 86.6281841,4.85358723 86.4791333,4.85358723 C86.4296116,4.85358723 86.420387,4.88441702 86.420387,4.91377872 L86.420387,5.62286383 C86.420387,5.91256596 86.4097058,6.9010766 86.420387,7.07039574 C86.4407783,7.64001277 86.5990536,7.75060851 87.460829,7.75060851 C87.6880464,7.75060851 88.1046116,7.75060851 88.331829,7.66105532 C88.5614739,7.56024681 88.6789667,7.41050213 88.7289739,7.07039574 C88.7483942,6.97154468 88.7697565,6.94022553 88.8173362,6.94022553 C88.867829,6.94022553 88.8770536,7.01069362 88.8770536,7.07039574 C88.8770536,7.1310766 88.8081116,7.70999149 88.7581043,7.89056596 C88.6998435,8.1098 88.6100246,8.1098 88.2740536,8.1098 C87.6191043,8.1098 87.1141768,8.09071489 86.7568435,8.0804383 C86.390771,8.05988511 86.1635536,8.05988511 86.0344087,8.05988511 C86.0145029,8.05988511 85.8450609,8.05988511 85.6566841,8.06967234 C85.4891841,8.0804383 85.2901261,8.09071489 85.1517565,8.09071489 C85.0629087,8.09071489 85.0129014,8.06967234 85.0129014,8.02024681 C85.0129014,7.98941702 85.0332928,7.95075745 85.082329,7.95075745 C85.1609812,7.95075745 85.2711913,7.9194383 85.3498435,7.91014043 C85.517829,7.88028936 85.5382203,7.70999149 85.5775464,7.46090638 C85.6275536,7.11150213 85.6275536,6.4410766 85.6275536,5.62286383 L85.6275536,4.12492766 Z" id="Fill-83"></path>
                            </g>
                            <g id="Petals" transform="translate(12.137681, 0.978723)" fill="#FFFFFF">
                                <path d="M113.778429,9.24291702 C115.898639,10.685066 117.097357,13.209683 119.126291,14.8524702 C122.624371,17.7123 126.99782,18.7786191 132.841386,17.7783638 C133.523523,17.7123 132.337429,11.1391936 125.506342,7.67940638 C115.740364,2.72559787 108.894712,8.20155532 108.894712,8.20155532 C109.366139,8.69434255 109.86961,7.86634255 110.611951,7.86634255 C111.845139,7.89423617 112.898204,8.64247021 113.778429,9.24291702" id="Fill-49"></path>
                                <path d="M147.436801,48.0432319 C147.410584,47.9487851 147.250852,47.7099766 147.219294,47.6028064 C141.401461,49.5935298 132.092345,47.963466 128.036417,46.6020617 C126.327917,46.0265723 124.399483,45.0781894 122.293838,45.2930191 C122.265678,45.3448915 122.074388,45.5465085 122.040403,45.5983809 C122.040403,45.5983809 123.531396,45.3316787 125.632671,47.9766787 C127.718896,50.6344021 131.761229,53.9473809 137.849975,53.9473809 C141.818026,53.9473809 146.495888,48.9916149 147.436801,48.0432319" id="Fill-51"></path>
                                <path d="M140.977273,53.7476234 C140.977273,53.7476234 146.457193,51.5959 150.272309,45.3188574 C152.976585,40.8720277 150.060628,37.7591979 148.761896,37.7591979 C148.768208,37.4920064 148.975034,37.3177936 148.975034,37.3177936 C148.975034,37.3177936 155.519672,36.8641553 155.519672,43.2762617 C155.519672,49.6864106 145.860505,53.5606872 140.977273,53.7476234" id="Fill-53"></path>
                                <path d="M46.3426862,19.0196298 C49.7558022,19.0196298 52.9752007,19.5941404 55.4197297,21.1439489 C56.0834181,20.9305872 57.3607877,20.4216511 58.0438964,20.236183 C43.6995848,12.3280979 21.6158022,21.1048 7.24430217,41.0037149 C4.45554855,44.8520553 2.16249783,48.8584596 0.34038913,52.8922681 L2.44166449,52.8922681 C3.68747609,49.2063957 5.52220797,45.5596723 8.06043986,42.0465447 C18.620708,27.4337149 33.5150993,19.0069064 46.3426862,19.0196298" id="Fill-55"></path>
                                <path d="M148.450492,46.5080064 C149.384608,45.2116872 150.888709,43.489134 150.458064,41.4984106 C148.868028,40.4834745 147.681934,39.6422617 145.621441,39.2277723 C140.665869,38.2402404 135.729717,41.7538574 131.800021,43.5963043 C128.806869,45.0115383 127.401325,44.2373681 124.261064,43.5963043 C119.543876,42.6464532 116.428862,44.7169426 116.428862,44.7169426 C116.920195,44.437517 135.603485,34.634134 135.603485,14.7729 C135.603485,5.22349574 128.202898,0.480602128 120.073564,0.480602128 C110.458579,0.480602128 106.795427,8.86875106 106.795427,8.86875106 C111.678659,4.86234681 116.423036,4.32747447 120.54305,5.02187872 C128.36263,6.33141064 133.93334,13.2098787 133.93334,17.3640702 C133.93334,31.7747936 115.932188,48.1507936 102.30934,48.1507936 C96.1482529,48.1507936 90.5163688,45.7597723 87.1566587,41.8199213 L83.8178254,41.8199213 C88.5282167,46.5207298 94.91555,49.4064957 101.959289,49.4064957 C114.229999,49.4064957 116.588108,42.4071553 124.864064,44.7575596 C126.626456,45.265517 128.480608,45.9065809 130.263876,46.2931766 C135.424333,47.4025596 141.832543,48.1229 148.450492,46.5080064" id="Fill-57"></path>
                            </g>
                            <g id="WOROOD" transform="translate(0.000000, 22.510638)" fill="#FFFFFF">
                                <path d="M12.9624123,9.89670426 L9.35752101,1.16061915 L5.72689783,1.16061915 L11.0470862,14.5456404 L12.9624123,9.89670426 Z M14.5985717,6.5445766 L14.6519775,6.5445766 C14.8568616,5.43470426 15.6992167,2.36395957 15.9041007,1.16061915 C15.6992167,1.13419362 14.9102674,1.0143 14.5985717,0.826874468 C14.5131225,0.80142766 14.3936877,0.719704255 14.3936877,0.614002128 C14.3936877,0.439789362 14.5131225,0.332619149 14.6777094,0.332619149 C14.9442529,0.332619149 17.1625355,0.506831915 20.1775355,0.506831915 C23.9081732,0.506831915 26.5852601,0.332619149 26.9353109,0.332619149 C27.1081514,0.332619149 27.2212746,0.439789362 27.2212746,0.614002128 C27.2212746,0.719704255 27.1081514,0.80142766 27.0275572,0.826874468 C26.5260283,0.98836383 25.3059486,1.10678936 24.9811442,1.13419362 C22.9206514,4.68695957 18.8652094,13.8894064 17.4213109,17.3100447 C17.2227384,17.8033213 17.0707746,18.2437468 16.7449993,18.2437468 C16.4609775,18.2437468 16.2497819,17.6956617 15.9380862,16.9880447 L13.3207167,10.7780447 C12.5312819,12.646917 10.9873688,16.3068532 10.5241949,17.5899596 C10.3853399,17.9770447 10.3518399,18.2437468 9.96731812,18.2437468 C9.70902826,18.2437468 9.61581087,17.9902574 9.41723841,17.6158957 L2.40699928,1.16061915 C2.05694855,1.13419362 0.751419565,1.0143 0.227071739,0.826874468 C0.13531087,0.80142766 0.0153905797,0.719704255 0.0153905797,0.614002128 C0.0153905797,0.439789362 0.13531087,0.332619149 0.307665942,0.332619149 C0.804339855,0.332619149 3.12991957,0.506831915 6.96591232,0.506831915 C10.6693616,0.506831915 13.1672964,0.332619149 13.3741225,0.332619149 C13.5513326,0.332619149 13.6644558,0.439789362 13.6644558,0.614002128 C13.6644558,0.719704255 13.5513326,0.80142766 13.4658833,0.826874468 C13.1672964,0.906640426 12.5312819,0.961938298 12.3200862,0.98836383 L14.5985717,6.5445766 Z M17.8582674,14.5456404 C18.8137457,12.3802149 19.9192457,9.48319362 20.9727964,6.63706596 C21.98605,3.8995766 22.5429268,1.97540638 22.7482964,1.16061915 L18.0053761,1.16061915 C17.2421587,2.4569383 15.6992167,5.94217234 14.9762964,7.51840638 L17.8582674,14.5456404 Z" id="Fill-1"></path>
                                <path d="M46.1435797,9.18747234 C46.1435797,13.9841957 42.0755145,18.2436 36.3644928,18.2436 C29.7047899,18.2436 26.127087,14.4099404 26.127087,9.18747234 C26.127087,3.53828085 30.9248696,0.0398340426 36.3644928,0.0398340426 C42.6518116,0.0398340426 46.1435797,3.96647234 46.1435797,9.18747234 M42.6518116,9.18747234 C42.6518116,5.88868511 41.373471,0.573238298 36.3644928,0.573238298 C31.7118768,0.573238298 29.6193406,4.36628085 29.6193406,9.18747234 C29.6193406,12.5674936 31.0763478,17.6955149 36.3644928,17.6955149 C40.902529,17.6955149 42.6518116,13.1283021 42.6518116,9.18747234" id="Fill-3"></path>
                                <path d="M53.9216486,10.1095766 C53.6313152,9.73717234 53.4249746,9.52234255 53.4249746,9.32219362 C53.4249746,9.18761915 53.5371268,9.09464043 53.8022138,9.09464043 C54.0881775,9.09464043 54.7834239,9.18761915 55.5257645,9.18761915 C58.2819891,9.18761915 60.5007572,8.41344894 60.5007572,5.82374681 C60.5007572,2.65708723 57.6187862,0.880704255 55.0222935,0.880704255 C54.0619601,0.880704255 53.3390399,1.10678936 52.8952862,1.16061915 C52.7758514,3.0715766 52.7758514,6.79806596 52.7758514,9.13525745 C52.7758514,11.4058957 52.7758514,15.1730021 52.8952862,17.1216404 C53.3987572,17.1490447 54.823721,17.2547468 55.491779,17.441683 C55.5791703,17.4827894 55.696663,17.5640234 55.696663,17.6697255 C55.696663,17.8439383 55.5791703,17.9511085 55.4063297,17.9511085 C55.1674601,17.9511085 53.5118804,17.7768957 51.3576848,17.7768957 C49.0855109,17.7768957 47.5474239,17.9511085 47.3100109,17.9511085 C47.1444529,17.9511085 47.0245326,17.8439383 47.0245326,17.6697255 C47.0245326,17.5640234 47.1444529,17.4827894 47.2294167,17.441683 C47.8654312,17.2288106 49.3836123,17.1490447 49.8147428,17.1216404 C49.9341775,15.2914277 49.9341775,11.6451936 49.9341775,9.13525745 C49.9341775,6.61112979 49.9341775,2.99034255 49.8147428,1.16061915 C49.3836123,1.13419362 47.8654312,1.0143 47.2294167,0.826874468 C47.1444529,0.80142766 47.0245326,0.719704255 47.0245326,0.614002128 C47.0245326,0.439789362 47.1444529,0.332619149 47.3100109,0.332619149 C47.8654312,0.332619149 50.3696775,0.506342553 51.4509022,0.506342553 C52.6369964,0.506342553 54.7300181,0.332619149 56.4200688,0.332619149 C59.7132645,0.332619149 63.4040906,1.24185319 63.4040906,4.57978936 C63.4040906,8.25195957 59.5938297,9.32219362 57.1216268,9.67061915 L61.1042428,14.986066 C61.9194094,16.0807681 62.6146558,17.0697681 63.668692,17.0697681 C64.3445181,17.0697681 64.5964964,16.8285128 64.8013804,16.8285128 C64.9402355,16.8285128 65.0659819,16.9342149 65.0659819,17.0697681 C65.0659819,17.4827894 63.5492572,18.4977255 61.8660036,18.4977255 C60.2638297,18.4977255 59.4146775,17.4289596 58.4543442,16.1341085 L53.9216486,10.1095766 Z" id="Fill-5"></path>
                                <path d="M85.5538051,9.18747234 C85.5538051,13.9841957 81.4774862,18.2436 75.7742326,18.2436 C69.1150152,18.2436 65.5368268,14.4099404 65.5368268,9.18747234 C65.5368268,3.53828085 70.3346094,0.0398340426 75.7742326,0.0398340426 C82.0615514,0.0398340426 85.5538051,3.96647234 85.5538051,9.18747234 M82.0615514,9.18747234 C82.0615514,5.88868511 80.7836964,0.573238298 75.7742326,0.573238298 C71.1157906,0.573238298 69.0213123,4.36628085 69.0213123,9.18747234 C69.0213123,12.5674936 70.4865732,17.6955149 75.7742326,17.6955149 C80.3185804,17.6955149 82.0615514,13.1283021 82.0615514,9.18747234" id="Fill-7"></path>
                                <path d="M107.146788,9.18747234 C107.146788,13.9841957 103.078723,18.2436 97.374013,18.2436 C90.7079986,18.2436 87.1298101,14.4099404 87.1298101,9.18747234 C87.1298101,3.53828085 91.9343899,0.0398340426 97.374013,0.0398340426 C103.654535,0.0398340426 107.146788,3.96647234 107.146788,9.18747234 M103.654535,9.18747234 C103.654535,5.88868511 102.382991,0.573238298 97.374013,0.573238298 C92.7218826,0.573238298 90.6288609,4.36628085 90.6288609,9.18747234 C90.6288609,12.5674936 92.0795565,17.6955149 97.374013,17.6955149 C101.911564,17.6955149 103.654535,13.1283021 103.654535,9.18747234" id="Fill-9"></path>
                                <path d="M116.375699,17.9510596 C114.984235,17.9510596 113.911264,17.7768468 112.360554,17.7768468 C110.09372,17.7768468 108.550778,17.9510596 108.326474,17.9510596 C108.14538,17.9510596 108.027401,17.8438894 108.027401,17.6696766 C108.027401,17.5639745 108.14538,17.4827404 108.226459,17.441634 C108.868786,17.2546979 110.38551,17.1489957 110.822952,17.1215915 C110.942387,15.2913787 110.942387,11.6451447 110.942387,9.13520851 C110.942387,6.61108085 110.942387,2.99029362 110.822952,1.16057021 C110.38551,1.13414468 108.868786,1.01425106 108.226459,0.826825532 C108.14538,0.801378723 108.027401,0.719655319 108.027401,0.613953191 C108.027401,0.439740426 108.14538,0.332570213 108.326474,0.332570213 C109.047452,0.332570213 110.737017,0.506782979 112.360554,0.506782979 C113.613162,0.506782979 115.771728,0.332570213 117.196691,0.332570213 C122.463959,0.332570213 126.565525,3.59220851 126.565525,8.82788936 C126.565525,15.0119532 121.70851,17.9510596 116.375699,17.9510596 M123.246597,9.25559149 C123.246597,5.83691064 121.523532,0.880655319 116.560677,0.880655319 C115.627046,0.880655319 114.811394,1.01425106 113.911264,1.16057021 C113.792314,3.07152766 113.792314,6.79801702 113.792314,9.13520851 C113.792314,11.431783 113.792314,15.1729532 113.911264,17.095166 C114.719633,17.1754213 115.388177,17.4024851 116.243155,17.4024851 C120.946749,17.4024851 123.246597,13.8893574 123.246597,9.25559149" id="Fill-11"></path>
                            </g>
                        </g>
                    </g>
                </g>
            </g>
        </g>
    </g>
</svg>